# xmcd CD database file
#
# Track frame offsets:
#	182
#	13470
#	28010
#	48932
#	67425
#	87455
#	106200
#	121047
#	143550
#	160272
#	178727
#	197195
#
# Disc length: 2920 seconds
#
# Revision: 0
# Processed by: cddbd v1.5PL3 Copyright (c) Steve Scherf et al.
# Submitted via: CDex 1.51
#
DISCID=aa0b660c
DTITLE=hot Antic Jazz Band - Morocco Blues
DYEAR=1995
DGENRE=Jazz
TTITLE0=Torrid Rhythm
TTITLE1=J'suis fou de vous
TTITLE2=Third Rail
TTITLE3=Biff'ly Blues
TTITLE4=Chinning And Chatting With May
TTITLE5=California Swing
TTITLE6=My Blue Heaven
TTITLE7=Doin' The Raccoon
TTITLE8=Morocco Blues
TTITLE9=Charleston Is The Best Dance After All
TTITLE10=If You Like Me Like I Like You
TTITLE11=Jersey Lightning
EXTD=YEAR: 1995
EXTT0=
EXTT1=
EXTT2=
EXTT3=
EXTT4=
EXTT5=
EXTT6=
EXTT7=
EXTT8=
EXTT9=
EXTT10=
EXTT11=
PLAYORDER=
